<svg width="21" height="21" viewBox="0 0 21 21" fill="none" xmlns="http://www.w3.org/2000/svg">
<path d="M10.4922 20.9727C13.1444 20.9727 15.6879 19.9191 17.5633 18.0437C19.4386 16.1684 20.4922 13.6248 20.4922 10.9727C20.4922 8.32049 19.4386 5.77695 17.5633 3.90159C15.6879 2.02622 13.1444 0.972656 10.4922 0.972656C7.84002 0.972656 5.29648 2.02622 3.42112 3.90159C1.54576 5.77695 0.492188 8.32049 0.492188 10.9727C0.492188 13.6248 1.54576 16.1684 3.42112 18.0437C5.29648 19.9191 7.84002 20.9727 10.4922 20.9727ZM9.24219 9.09766C9.24219 10.1327 8.68219 10.9727 7.99219 10.9727C7.30219 10.9727 6.74219 10.1327 6.74219 9.09766C6.74219 8.06266 7.30219 7.22266 7.99219 7.22266C8.68219 7.22266 9.24219 8.06266 9.24219 9.09766ZM5.84844 12.9314C5.99199 12.8485 6.16258 12.8261 6.32269 12.869C6.48279 12.9119 6.6193 13.0166 6.70219 13.1602C7.08608 13.8256 7.6385 14.3781 8.30385 14.7621C8.96919 15.1462 9.72397 15.3481 10.4922 15.3477C11.2604 15.3481 12.0152 15.1462 12.6805 14.7621C13.3459 14.3781 13.8983 13.8256 14.2822 13.1602C14.3229 13.0885 14.3774 13.0256 14.4426 12.9751C14.5077 12.9246 14.5822 12.8875 14.6618 12.8659C14.7413 12.8443 14.8243 12.8387 14.9061 12.8493C14.9878 12.8599 15.0666 12.8866 15.138 12.9278C15.2094 12.969 15.2719 13.0239 15.322 13.0894C15.3721 13.1549 15.4087 13.2296 15.4297 13.3093C15.4508 13.389 15.4559 13.4721 15.4447 13.5537C15.4336 13.6354 15.4064 13.714 15.3647 13.7852C14.8711 14.6406 14.1609 15.3509 13.3055 15.8447C12.4501 16.3384 11.4798 16.5981 10.4922 16.5977C9.50456 16.5981 8.53423 16.3384 7.67887 15.8447C6.8235 15.3509 6.11328 14.6406 5.61969 13.7852C5.53681 13.6416 5.51435 13.471 5.55725 13.3109C5.60015 13.1508 5.70489 13.0143 5.84844 12.9314ZM12.9922 10.9727C12.3022 10.9727 11.7422 10.1327 11.7422 9.09766C11.7422 8.06266 12.3022 7.22266 12.9922 7.22266C13.6822 7.22266 14.2422 8.06266 14.2422 9.09766C14.2422 10.1327 13.6822 10.9727 12.9922 10.9727Z" fill="#7D7D7D"/>
</svg>
