<svg width="20" height="20" viewBox="0 0 20 20" fill="none" xmlns="http://www.w3.org/2000/svg">
<path fill-rule="evenodd" clip-rule="evenodd" d="M6.33203 1.91669H13.332C14.9889 1.91669 16.332 3.25983 16.332 4.91669V15.2511C16.332 16.7239 15.1384 17.9167 13.6656 17.9167H6.33203C4.67518 17.9167 3.33203 16.5735 3.33203 14.9167V4.91669C3.33203 3.25983 4.67518 1.91669 6.33203 1.91669ZM6.99902 5.16669C6.53879 5.16669 6.16569 5.53978 6.16569 6.00002C6.16569 6.46026 6.53879 6.83335 6.99902 6.83335H12.999C13.4593 6.83335 13.8324 6.46026 13.8324 6.00002C13.8324 5.53978 13.4593 5.16669 12.999 5.16669H6.99902ZM6.99902 8.16669C6.53879 8.16669 6.16569 8.53978 6.16569 9.00002C6.16569 9.46026 6.53879 9.83335 6.99902 9.83335H12.999C13.4593 9.83335 13.8324 9.46026 13.8324 9.00002C13.8324 8.53978 13.4593 8.16669 12.999 8.16669H6.99902ZM6.99902 11.1667C6.53879 11.1667 6.16569 11.5398 6.16569 12C6.16569 12.4603 6.53879 12.8334 6.99902 12.8334H9.99902C10.4593 12.8334 10.8324 12.4603 10.8324 12C10.8324 11.5398 10.4593 11.1667 9.99902 11.1667H6.99902Z" fill="white"/>
</svg>
