<svg width="14" height="17" viewBox="0 0 14 17" fill="none" xmlns="http://www.w3.org/2000/svg">
<path fill-rule="evenodd" clip-rule="evenodd" d="M14 4.95222C14 4.62909 13.8288 4.33052 13.551 4.16895L7.44905 0.621171C7.17118 0.459609 6.82882 0.45961 6.55095 0.621171L0.44905 4.16895C0.171177 4.33052 0 4.62909 0 4.95222V12.0478C0 12.3709 0.171177 12.6695 0.449051 12.831L6.55095 16.3788C6.82882 16.5404 7.17118 16.5404 7.44905 16.3788L13.551 12.831C13.8288 12.6695 14 12.3709 14 12.0478V4.95222ZM7 11.2133C8.48802 11.2133 9.6943 9.99852 9.6943 8.5C9.6943 7.00148 8.48802 5.78669 7 5.78669C5.51198 5.78669 4.3057 7.00148 4.3057 8.5C4.3057 9.99852 5.51198 11.2133 7 11.2133Z" fill="#E73F3F"/>
</svg>
