<svg width="20" height="20" viewBox="0 0 20 20" fill="none" xmlns="http://www.w3.org/2000/svg">
<path d="M2 3.77778C2 2.79594 2.79594 2 3.77778 2H7.33333C8.31517 2 9.11111 2.79594 9.11111 3.77778V7.33333C9.11111 8.31517 8.31517 9.11111 7.33333 9.11111H3.77778C2.79594 9.11111 2 8.31517 2 7.33333V3.77778Z" fill="#1376CD"/>
<path d="M2 12.6667C2 11.6848 2.79594 10.8889 3.77778 10.8889H7.33333C8.31517 10.8889 9.11111 11.6848 9.11111 12.6667V16.2222C9.11111 17.2041 8.31517 18 7.33333 18H3.77778C2.79594 18 2 17.2041 2 16.2222V12.6667Z" fill="#1376CD"/>
<path d="M10.8889 3.77778C10.8889 2.79594 11.6848 2 12.6667 2H16.2222C17.2041 2 18 2.79594 18 3.77778V7.33333C18 8.31517 17.2041 9.11111 16.2222 9.11111H12.6667C11.6848 9.11111 10.8889 8.31517 10.8889 7.33333V3.77778Z" fill="#1376CD"/>
<path d="M10.8889 12.6667C10.8889 11.6848 11.6848 10.8889 12.6667 10.8889H16.2222C17.2041 10.8889 18 11.6848 18 12.6667V16.2222C18 17.2041 17.2041 18 16.2222 18H12.6667C11.6848 18 10.8889 17.2041 10.8889 16.2222V12.6667Z" fill="#1376CD"/>
</svg>
