<svg width="41" height="41" viewBox="0 0 41 41" fill="none" xmlns="http://www.w3.org/2000/svg">
<ellipse cx="20.4565" cy="20.0604" rx="20.0385" ry="20.0057" fill="#1376CD"/>
<g filter="url(#filter0_dd_806_13513)">
<path fill-rule="evenodd" clip-rule="evenodd" d="M21.8465 28.3964C21.829 28.3964 21.8123 28.3956 21.7956 28.3947C21.4182 28.3722 21.1034 28.0988 21.0283 27.7287L19.7441 21.4211C19.6774 21.0927 19.421 20.8367 19.0921 20.7701L12.7741 19.4872C12.4034 19.413 12.1295 19.0988 12.107 18.722C12.0844 18.3444 12.3174 17.9993 12.6764 17.8809L26.0354 13.4355C26.3351 13.3338 26.6658 13.4121 26.8895 13.6364C27.1133 13.8598 27.191 14.1899 27.0916 14.4891L22.638 27.8262C22.5245 28.1688 22.2039 28.3964 21.8465 28.3964Z" fill="#1376CD"/>
<mask id="mask0_806_13513" style="mask-type:luminance" maskUnits="userSpaceOnUse" x="12" y="13" width="16" height="16">
<path fill-rule="evenodd" clip-rule="evenodd" d="M21.8465 28.3964C21.829 28.3964 21.8123 28.3956 21.7956 28.3947C21.4182 28.3722 21.1034 28.0988 21.0283 27.7287L19.7441 21.4211C19.6774 21.0927 19.421 20.8367 19.0921 20.7701L12.7741 19.4872C12.4034 19.413 12.1295 19.0988 12.107 18.722C12.0844 18.3444 12.3174 17.9993 12.6764 17.8809L26.0354 13.4355C26.3351 13.3338 26.6658 13.4121 26.8895 13.6364C27.1133 13.8598 27.191 14.1899 27.0916 14.4891L22.638 27.8262C22.5245 28.1688 22.2039 28.3964 21.8465 28.3964Z" fill="white"/>
</mask>
<g mask="url(#mask0_806_13513)">
<rect x="10.4336" y="10.0576" width="20.0385" height="20.0057" fill="white"/>
</g>
</g>
<defs>
<filter id="filter0_dd_806_13513" x="8.43359" y="9.05762" width="24.0391" height="24.0059" filterUnits="userSpaceOnUse" color-interpolation-filters="sRGB">
<feFlood flood-opacity="0" result="BackgroundImageFix"/>
<feColorMatrix in="SourceAlpha" type="matrix" values="0 0 0 0 0 0 0 0 0 0 0 0 0 0 0 0 0 0 127 0" result="hardAlpha"/>
<feOffset dy="1"/>
<feGaussianBlur stdDeviation="0.5"/>
<feColorMatrix type="matrix" values="0 0 0 0 0 0 0 0 0 0 0 0 0 0 0 0 0 0 0.03 0"/>
<feBlend mode="normal" in2="BackgroundImageFix" result="effect1_dropShadow_806_13513"/>
<feColorMatrix in="SourceAlpha" type="matrix" values="0 0 0 0 0 0 0 0 0 0 0 0 0 0 0 0 0 0 127 0" result="hardAlpha"/>
<feOffset dy="1"/>
<feGaussianBlur stdDeviation="1"/>
<feColorMatrix type="matrix" values="0 0 0 0 0 0 0 0 0 0 0 0 0 0 0 0 0 0 0.03 0"/>
<feBlend mode="normal" in2="effect1_dropShadow_806_13513" result="effect2_dropShadow_806_13513"/>
<feBlend mode="normal" in="SourceGraphic" in2="effect2_dropShadow_806_13513" result="shape"/>
</filter>
</defs>
</svg>
